<svg xmlns="http://www.w3.org/2000/svg" width="512" height="512" overflow="hidden">
  <path fill="#546e7a"
    d="M337.414 385.602v72.695c0 4.361 2.097 8.198 5.143 8.198h5.521c3.047 0 5.34-3.837 5.34-8.198V299.064c0-4.356-2.293-8.09-5.34-8.09h-5.521c-3.046 0-5.143 3.734-5.143 8.09v72.803" />
  <path fill="#37474f"
    d="M264.865 371.456v-57.008c0-4.36-2.046-8.622-5.096-8.622h-5.52c-3.047 0-5.386 4.263-5.386 8.622v127.649c0 4.361 2.339 7.199 5.386 7.199h5.52c3.049 0 5.096-2.836 5.096-7.2v-56.905" />
  <path fill="#455a64"
    d="M295.274 370.8v-61.849c0-4.359-2.487-7.94-5.534-7.94h-5.519c-3.048 0-6.017 3.579-6.017 7.94v138.177c0 4.358 2.969 8.04 6.017 8.04h5.519c3.047 0 5.534-3.68 5.534-8.04V370.8z" />
  <path fill="#546e7a"
    d="M308.075 371.337V303.8c0-4.361 2.531-7.254 5.58-7.254h5.52c3.045 0 5.97 2.893 5.97 7.254V452.502c0 4.362-2.925 7.355-5.97 7.355h-5.52c-3.049 0-5.58-2.993-5.58-7.355V385.07" />
  <path fill="#37474f"
    d="M501.507 132.136c-2.025-5.96-4.848-9.788-7.597-13.175-5.595-6.587-11.47-11.1-17.304-15.227-5.848-4.056-11.697-7.5-17.491-10.628-11.596-6.22-22.964-11.198-33.937-15.548-21.957-8.643-42.343-14.744-60.489-19.39-18.152-4.62-34.08-7.68-47.235-9.606-13.154-1.94-23.533-2.71-30.607-2.945-7.076-.234-10.847-.036-10.847-.036s3.774.047 10.824.739c7.047.691 17.363 2.132 30.397 4.912 13.031 2.77 28.782 6.842 46.67 12.602 17.876 5.784 37.926 13.164 59.318 23.095 10.681 4.988 21.708 10.619 32.756 17.38 5.515 3.391 11.035 7.074 16.398 11.237 5.317 4.17 10.622 8.83 14.87 14.357 2.08 2.72 3.883 5.814 4.608 8.444.368 1.307.449 2.34.37 3.175-.085.836-.331 1.7-.877 2.781-1.096 2.17-3.339 4.551-5.871 6.494-2.562 1.968-5.448 3.659-8.45 5.147-6.026 2.971-12.51 5.202-19.132 7.09-6.629 1.884-13.43 3.392-20.326 4.702-27.63 5.108-56.678 7.225-86.175 8.47-29.522 1.171-59.575 1.23-89.635.705l-22.542-.51-11.262-.335-11.413-.485c-15.266-.557-30.528-.481-45.722.42-15.194.903-30.322 2.61-45.313 5.477-14.99 2.862-29.847 6.848-44.49 12.73-14.63 6.017-29.106 13.497-43.121 26.344-3.497 3.255-6.957 6.89-10.322 11.19-3.356 4.297-6.638 9.182-9.595 15.14a84.512 84.512 0 00-7.226 21.02c-1.685 8.032-2.177 17.09-1.4 25.607a91.602 91.602 0 005.177 22.941c2.448 6.588 5.311 12.223 8.279 17.024 5.963 9.63 12.269 16.608 18.461 22.529 12.434 11.711 24.627 19.238 36.325 25.511 11.706 6.18 22.95 10.797 33.648 14.574 10.697 3.768 20.85 6.67 30.387 9.048 19.078 4.716 35.696 7.35 49.367 9.144l.207.027-.207 6.51c13.683 2.072 24.368 3.085 31.737 3.705l11.069.823.107-48.478.108-41.27h-.016l.016-7.207-10.612.575c-6.766.304-16.82.643-29.493.362l-.227 7.062c-12.633-.27-27.921-1.03-45.177-3.37-8.672-1.192-17.836-2.787-27.323-5.044-9.483-2.256-19.304-5.174-29.082-9.142-9.725-3.964-19.583-9.04-27.938-15.665-4.154-3.268-7.887-6.987-10.52-10.55a32.144 32.144 0 01-2.996-4.825 22.309 22.309 0 01-1.19-2.98c-.155-.654-.322-1.111-.25-2.14.019-.504.106-1.137.304-1.907.173-.76.45-1.648.845-2.628 1.518-3.948 4.792-8.979 8.973-13.536 4.185-4.62 9.228-8.964 14.675-12.905 5.475-3.922 11.35-7.516 17.498-10.722 12.297-6.442 25.547-11.582 39.235-15.731 13.696-4.167 27.855-7.35 42.257-9.794 14.405-2.44 29.06-4.129 43.837-5.204 3.71-.265 7.36-.529 11.14-.665l11.324-.4 22.687-.956c30.26-1.437 60.523-3.456 90.312-6.577 29.785-3.199 59.101-7.225 87.397-14.326 7.073-1.811 14.08-3.832 21.008-6.273 6.925-2.454 13.775-5.253 20.512-9.068 3.366-1.927 6.708-4.105 9.992-6.911 3.245-2.882 6.606-6.213 9.302-11.935a28.154 28.154 0 002.5-10.429c.18-3.906-.506-7.605-1.487-10.57z" />
  <path fill="#546e7a" text-anchor="middle" font-size="100" letter-spacing="3" font-family="Fascinate" font-weight="400"
    d="M428.995 478.373q-7.918 0-15.876-1.809-7.958-1.809-15.269-6.224-7.33-4.416-13.648-11.757-6.339-7.342-11.037-18.328-4.677-10.959-7.35-25.961-2.673-15.003-2.673-34.873 0-19.737 2.673-34.819 2.673-15.055 7.35-26.041 4.698-10.96 11.037-18.248 6.318-7.262 13.648-11.624 7.31-4.336 15.269-6.171 7.958-1.809 15.876-1.809 7.897 0 15.917 1.809 7.998 1.835 15.329 6.171 7.31 4.362 13.648 11.624 6.318 7.289 10.976 18.248 4.637 10.986 7.31 26.041 2.673 15.082 2.673 34.82 0 19.736-2.673 34.792-2.673 15.082-7.31 26.041-4.658 10.986-10.976 18.328-6.338 7.341-13.648 11.757-7.33 4.415-15.33 6.224-8.019 1.809-15.916 1.809zm8.89-98.952q0 16.226 1.843 27.132 1.822 10.906 4.88 17.53 3.078 6.623 6.885 9.416t7.857 2.793q4.05 0 7.897-2.793 3.868-2.793 6.885-9.416 3.018-6.624 4.84-17.53 1.823-10.906 1.823-27.132 0-16.252-1.823-27.158-1.822-10.906-4.84-17.53-3.017-6.623-6.885-9.416-3.847-2.793-7.897-2.793-4.05 0-7.857 2.793-3.807 2.793-6.885 9.417-3.058 6.623-4.88 17.529-1.843 10.906-1.843 27.158z" />
  </svg>
