<svg viewBox="0 0 512 512"><svg xmlns="http://www.w3.org/2000/svg" width="512" height="512"
    xmlns:xlink="http://www.w3.org/1999/xlink" overflow="hidden">
    <path fill="#546e7a"
      d="M208.509 292.67v29.249c0 1.755 1.207 3.298 2.96 3.298h3.178c1.754 0 3.073-1.543 3.073-3.298v-64.065c0-1.753-1.32-3.256-3.073-3.256h-3.178c-1.753 0-2.96 1.503-2.96 3.256v29.29" />
    <path fill="#37474f"
      d="M166.751 286.98v-22.937c0-1.754-1.178-3.469-2.933-3.469h-3.177c-1.754 0-3.1 1.715-3.1 3.469v51.358c0 1.755 1.346 2.896 3.1 2.896h3.177c1.755 0 2.933-1.14 2.933-2.896v-22.895" />
    <path fill="#455a64"
      d="M184.254 286.716v-24.884a3.2 3.2 0 00-3.186-3.195h-3.176c-1.755 0-3.464 1.44-3.464 3.195v55.593c0 1.754 1.71 3.235 3.464 3.235h3.176c1.754 0 3.186-1.48 3.186-3.235v-30.709z" />
    <path fill="#546e7a"
      d="M191.622 286.931V259.76c0-1.754 1.457-2.918 3.211-2.918h3.178c1.753 0 3.435 1.164 3.435 2.918v59.828c0 1.755-1.682 2.96-3.435 2.96h-3.178c-1.754 0-3.211-1.205-3.211-2.96v-27.13" />
    <path fill="#37474f"
      d="M302.957 190.692c-1.166-2.398-2.79-3.938-4.372-5.3-3.22-2.65-6.603-4.466-9.96-6.127-3.366-1.632-6.733-3.017-10.068-4.276-6.674-2.502-13.217-4.505-19.533-6.256-12.638-3.477-24.372-5.931-34.816-7.801-10.449-1.859-19.616-3.09-27.188-3.865-7.571-.78-13.545-1.09-17.616-1.185-4.073-.094-6.244-.014-6.244-.014s2.172.019 6.23.297c4.056.278 9.994.858 17.496 1.977 7.5 1.114 16.566 2.752 26.862 5.07 10.29 2.327 21.83 5.296 34.142 9.292 6.148 2.007 12.495 4.272 18.854 6.993 3.175 1.364 6.352 2.846 9.438 4.52 3.061 1.678 6.114 3.553 8.56 5.777 1.197 1.094 2.234 2.339 2.652 3.397.211.526.258.942.212 1.277-.048.337-.19.684-.504 1.12-.631.873-1.922 1.83-3.38 2.612-1.474.792-3.135 1.472-4.863 2.071-3.468 1.196-7.201 2.093-11.012 2.852-3.815.759-7.73 1.366-11.7 1.892-15.903 2.056-32.622 2.907-49.6 3.408-16.992.472-34.29.495-51.592.284l-12.975-.206-6.482-.134-6.569-.195c-8.787-.224-17.57-.194-26.316.169-8.746.363-17.453 1.05-26.082 2.203-8.628 1.152-17.179 2.756-25.608 5.122-8.42 2.421-16.752 5.43-24.82 10.6-2.011 1.309-4.003 2.771-5.94 4.501-1.931 1.73-3.82 3.695-5.522 6.092-1.695 2.372-3.218 5.201-4.16 8.457-.97 3.232-1.253 6.876-.806 10.302.455 3.432 1.583 6.566 2.98 9.23a35.45 35.45 0 004.765 6.85c3.432 3.874 7.062 6.682 10.626 9.064 7.157 4.712 14.175 7.74 20.908 10.264 6.738 2.486 13.21 4.344 19.367 5.864 6.157 1.516 12.001 2.683 17.49 3.64 10.981 1.898 20.546 2.958 28.415 3.68l.12.01-.12 2.619a381.731 381.731 0 0018.267 1.49l6.371.332.062-19.504.062-16.605h-.01l.01-2.9-6.108.232c-3.894.122-9.682.258-16.976.145l-.13 2.842c-7.272-.109-16.071-.415-26.003-1.356-4.992-.48-10.266-1.121-15.727-2.03-5.458-.907-11.11-2.081-16.74-3.678-5.596-1.595-11.27-3.637-16.08-6.302-2.39-1.315-4.539-2.811-6.054-4.245a13.23 13.23 0 01-1.725-1.941 7.646 7.646 0 01-.685-1.2c-.089-.262-.185-.446-.144-.86.011-.203.061-.458.175-.767.1-.306.259-.664.487-1.058.873-1.588 2.758-3.612 5.164-5.446 2.41-1.859 5.312-3.606 8.447-5.192a95.89 95.89 0 0110.071-4.314c7.078-2.592 14.705-4.66 22.583-6.33 7.883-1.676 16.033-2.956 24.323-3.94 8.29-.981 16.726-1.66 25.231-2.093 2.135-.107 4.236-.213 6.412-.268l6.518-.16 13.058-.385c17.417-.578 34.836-1.39 51.982-2.646 17.144-1.287 34.017-2.907 50.304-5.764 4.071-.73 8.104-1.542 12.092-2.524 3.986-.987 7.928-2.114 11.806-3.649 1.938-.775 3.861-1.651 5.751-2.78 1.868-1.16 3.802-2.5 5.354-4.802.756-1.147 1.35-2.628 1.44-4.196.103-1.572-.292-3.06-.857-4.253z" />
    <path fill="#546e7a" text-anchor="middle" font-size="100" letter-spacing="3" font-family="Fascinate"
      font-weight="400"
      d="M250.014 324.747q-2.922 0-5.86-.646-2.938-.647-5.636-2.224-2.706-1.578-5.038-4.2-2.34-2.623-4.074-6.548-1.726-3.916-2.713-9.276-.987-5.36-.987-12.458 0-7.052.987-12.44.987-5.38 2.713-9.304 1.734-3.915 4.074-6.52 2.332-2.594 5.038-4.152 2.698-1.55 5.636-2.205 2.938-.646 5.86-.646 2.915 0 5.875.646 2.953.656 5.659 2.205 2.698 1.558 5.038 4.153 2.332 2.604 4.051 6.519 1.712 3.925 2.698 9.304.987 5.388.987 12.44 0 7.051-.987 12.43-.986 5.388-2.698 9.304-1.72 3.925-4.051 6.547-2.34 2.623-5.038 4.2-2.706 1.578-5.659 2.225-2.96.646-5.875.646zm3.282-35.352q0 5.797.68 9.693.673 3.896 1.801 6.263 1.136 2.366 2.542 3.364 1.405.998 2.9.998 1.495 0 2.915-.998 1.428-.998 2.541-3.364 1.114-2.367 1.787-6.263.673-3.896.673-9.693 0-5.807-.673-9.703-.673-3.897-1.787-6.263-1.113-2.366-2.541-3.364-1.42-.998-2.915-.998t-2.9.998q-1.406.998-2.542 3.364-1.128 2.366-1.801 6.263-.68 3.896-.68 9.703zm66.335-33.091h4.38q.696 0 1.241.56.546.552.546 2.13v60.517q0 3.43-2.556 3.43h-12.663q-1.203 0-1.988-.598-.785-.609-1.405-1.397l-18.687-24.823q.329 6.025.658 11.09.104 2.177.254 4.315.142 2.129.254 3.991.112 1.853.202 3.25.09 1.388.127 1.996.075.789-.202 1.483-.269.693-1.256.693h-4.604q-.65 0-1.219-.532-.568-.532-.568-2.11v-60.555q0-3.44 2.998-3.44h12.333q1.39 0 2.317.741.935.751 1.884 1.948l17.767 22.419q-.358-5.522-.65-10.207-.15-1.995-.276-3.991-.127-1.996-.24-3.735-.104-1.74-.201-3.041-.09-1.302-.127-1.948-.075-.741.239-1.464.314-.722 1.442-.722zm46.51 60.185v-22.922l-8.573 20.09q-.546 1.302-1.316 2.157-.762.865-2.115.865-1.24 0-2.063-.884-.822-.884-1.368-2.09l-9.052-19.768q.217 6.263.404 11.556.075 2.271.142 4.552.075 2.272.15 4.22.074 1.948.126 3.459.053 1.502.09 2.205.037.693-.015 1.245-.06.56-.276.96-.217.39-.62.598-.404.21-1.092.21h-4.022q-.65 0-1.218-.533-.568-.532-.568-2.11v-59.025q0-.884.202-1.767.202-.884.695-1.597.493-.722 1.293-1.16.807-.446 1.973-.446h11.75q1.428 0 2.445.627 1.024.627 1.757 2.062l9.814 19.815 6.57-16.004q.583-1.435 1.129-2.623.553-1.188 1.3-2.043.748-.855 1.862-1.34 1.114-.494 2.863-.494h9.71q1.382 0 2.391.466 1.002.465 1.637 1.254.643.789.935 1.853.291 1.074.291 2.32v54.292q0 1.444-.18 2.622-.186 1.188-.747 2.044-.568.855-1.607 1.32-1.039.466-2.72.466h-16.864q-1.495 0-2.481-.418-.987-.418-1.57-1.207-.583-.789-.822-1.995-.24-1.207-.24-2.832zm52.139-60.185h5.442q.65 0 1.128.21.471.208.86.721.381.514.71 1.35.329.827.695 2.034l16.751 56.896q.18.646.254 1.16.075.503.075 1.016 0 1.673-.785 2.462-.785.788-1.66.788h-20.697q-.95 0-1.585-.304-.642-.294-1.076-.713-.441-.418-.68-.883-.232-.466-.307-.837l-.403-1.625h-10.256l-.254 1.388q-.112.703-.254 1.235-.15.532-.366.932-.217.39-.606.598-.38.21-1.001.21h-3.76q-1.166 0-1.166-1.16 0-.418.127-.998.127-.58.344-1.368l15.256-58.702q.553-2.177 1.24-3.25.696-1.065 1.974-1.16zm-6.57 38.422l-3.835 18.142h7.886l-4.051-18.142zm38.447 21.763v-53.685q0-1.625.224-2.832.217-1.207.838-2.014.62-.818 1.711-1.236 1.099-.418 2.848-.418h16.28q2.52 0 5 .4 2.482.389 4.762 1.32 2.28.931 4.231 2.414 1.958 1.482 3.401 3.687 1.435 2.205 2.257 5.151.823 2.946.823 6.795 0 5.711-1.219 9.636-1.226 3.916-3.304 6.472-2.085 2.547-4.836 3.896-2.758 1.34-5.785 1.949v17.4q0 1.065-.15 2.367-.142 1.301-.725 2.432-.59 1.14-1.794 1.93-1.203.788-3.319.788h-15.622q-1.749 0-2.848-.418-1.091-.418-1.711-1.207-.62-.789-.838-1.995-.224-1.207-.224-2.832zm37.232-39.715q0-2.784-.583-5.132-.59-2.347-1.794-4.105-1.203-1.768-3.102-2.927-1.899-1.16-4.522-1.578v28.824q2.623-.513 4.522-1.863 1.899-1.34 3.102-3.335 1.203-1.996 1.794-4.524.583-2.537.583-5.36z" />
    <path fill="#546e7a" text-anchor="middle" font-size="48" font-family="Exo 2" font-weight="700" letter-spacing="4"
      d="M231.873 334.672q1.7 0 2.877.421 1.181.42 1.897 1.392.712.977 1.044 2.645.332 1.672.332 4.172 0 2.499-.332 4.171-.332 1.668-1.044 2.645-.716.971-1.897 1.392-1.178.42-2.877.42-1.695 0-2.877-.42-1.182-.42-1.906-1.392-.725-.977-1.053-2.645-.332-1.672-.332-4.171 0-2.5.332-4.172.328-1.668 1.053-2.645.724-.971 1.906-1.392 1.182-.42 2.877-.42zm0 2.91q-1.096 0-1.708.501-.608.506-.867 1.743-.259 1.242-.259 3.476 0 2.213.26 3.46.258 1.252.866 1.758.612.501 1.708.501 1.078 0 1.686-.5.613-.507.872-1.759.258-1.247.258-3.46 0-2.234-.258-3.476-.26-1.237-.872-1.743-.608-.5-1.686-.5zm17.21 1.823q2.899 0 2.899 3.296v8.894h-3.062v-7.788q0-.796-.25-1.096-.246-.3-.85-.3-.66 0-1.363.3-.707.3-1.743.926l-.142-1.993q1.096-1.082 2.247-1.658 1.147-.58 2.265-.58zm-7.12.316h2.462l.354 2.354.246.315v9.205h-3.062v-11.874zm14.189-4.953h3.062l-.022 13.031q0 .601.31.902.311.3.915.3h.828l.35 2.404q-.246.14-.703.25-.458.11-.932.17-.474.06-.806.06-1.39 0-2.196-.84-.806-.842-.806-2.36v-13.917zm8.576 4.953h3.045v11.874h-3.045v-11.874zm.87-5.244h1.325q.91 0 .91 1.082v1.277q0 1.082-.91 1.082h-1.324q-.91 0-.91-1.082v-1.277q0-1.082.91-1.082zm13.608 4.928q2.898 0 2.898 3.296v8.894h-3.062v-7.788q0-.796-.25-1.096-.246-.3-.85-.3-.66 0-1.363.3-.707.3-1.743.926l-.142-1.993q1.096-1.082 2.247-1.658 1.147-.58 2.265-.58zm-7.121.316h2.462l.354 2.354.246.315v9.205h-3.062v-11.874zm19.01-.316q2.588 0 3.718 1.022 1.126 1.022 1.126 3.045.022 1.633-.703 2.439t-2.506.806h-5.71v-1.998h4.865q.703 0 .897-.346.198-.35.198-.976-.021-.842-.422-1.167-.406-.32-1.359-.32-.85 0-1.324.26-.474.265-.664 1.011-.186.747-.186 2.164 0 1.492.229 2.294.229.806.776 1.122.548.31 1.523.31.703 0 1.747-.06 1.048-.06 2.104-.205l.29 2.188q-.6.336-1.368.531-.768.19-1.574.276-.807.085-1.553.085-1.945 0-3.135-.661-1.19-.661-1.717-2.034-.53-1.372-.53-3.51 0-2.33.539-3.702.539-1.372 1.699-1.973 1.156-.6 3.04-.6zm24.05-4.397h2.98v15.265q0 1.322-1.138 1.322h-1.739q-.517 0-.785-.275-.271-.276-.496-.832l-3.955-8.699q-.25-.556-.487-1.227-.237-.676-.405-1.297h-.225q.06.646.104 1.307.039.661.039 1.312v9.711h-3.002V336.33q0-1.322 1.16-1.322h1.717q.5 0 .759.275.258.276.504.832l3.83 8.439q.25.55.518 1.222.272.676.517 1.397h.25q-.064-.721-.094-1.407t-.03-1.358l-.022-9.4zm12.221 4.397q2.588 0 3.718 1.022 1.126 1.022 1.126 3.045.021 1.633-.703 2.439-.725.806-2.506.806h-5.71v-1.998h4.864q.703 0 .898-.346.198-.35.198-.976-.022-.842-.423-1.167-.405-.32-1.358-.32-.85 0-1.324.26-.475.265-.665 1.011-.185.747-.185 2.164 0 1.492.229 2.294.228.806.776 1.122.548.31 1.522.31.703 0 1.747-.06 1.048-.06 2.105-.205l.289 2.188q-.6.336-1.367.531-.768.19-1.575.276-.806.085-1.552.085-1.945 0-3.136-.661-1.19-.661-1.716-2.034-.53-1.372-.53-3.51 0-2.33.538-3.702.54-1.372 1.7-1.973 1.155-.6 3.04-.6zm9.468-2.98h3.084V347.8q0 .646.259.922.258.28.862.28h1.324l.332 2.404q-.375.14-.914.25-.535.11-1.074.17-.539.06-.91.06-1.389 0-2.165-.866t-.776-2.429l-.022-12.165zm.207 3.296h5.736v2.329h-7.724v-2.21l1.988-.12zm22.035 0h3.084l-2.523 10.938q-.086.43-.375.686-.29.25-.682.25h-2.32q-.414 0-.725-.3-.31-.3-.37-.781l-1.118-6.682q-.064-.505-.103-1.001-.043-.491-.125-.997h-.25q-.06.506-.126.997l-.12 1.001-1.122 6.682q-.06.48-.37.78-.311.301-.725.301h-2.299q-.393 0-.681-.25-.29-.256-.376-.686l-2.523-10.938h3.084l1.406 7.692q.086.481.147.972.06.496.103.977h.268q.064-.481.138-.977.069-.49.133-.972l1.117-6.61q.06-.481.354-.782.289-.3.725-.3h1.984q.414 0 .716.3.301.3.362.807l1.095 6.585q.065.481.147.962.082.48.147.987h.245q.082-.506.134-.977.052-.466.138-.972l1.406-7.692zm11.145-.316q1.924 0 3.084.616 1.16.611 1.669 1.983.505 1.368.505 3.677 0 2.258-.505 3.63-.509 1.373-1.67 1.974-1.16.6-3.083.6-1.906 0-3.075-.6-1.169-.601-1.687-1.973-.517-1.373-.517-3.631 0-2.31.517-3.677.518-1.372 1.687-1.983 1.169-.616 3.075-.616zm0 2.6q-.785 0-1.242.31-.457.315-.643 1.107-.185.791-.185 2.259 0 1.442.185 2.238.186.792.643 1.092.457.3 1.242.3.785 0 1.242-.3.457-.3.643-1.092.185-.796.185-2.238 0-1.468-.185-2.26-.186-.79-.643-1.106-.457-.31-1.242-.31zm9.075-2.284h2.402l.37 2.354.29.315v9.205h-3.062v-11.874zm6.853-.316h.539l-.293 3.296h-.846q-.724 0-1.513.24-.785.24-1.989.721l-.207-1.993q1.078-1.107 2.174-1.683 1.1-.58 2.135-.58zm10.19.316h3.416l-2.67 4.132q-.185.34-.474.65-.29.311-.48.456v.095q.19.12.48.506.289.386.474.772l3.023 5.263h-3.416l-3.497-6.68 3.144-5.194zm-6.478-4.953h3.062l.021 6.946q0 .841-.081 1.638-.082.791-.25 1.562.146.741.228 1.523.082.781.082 1.457v3.701h-3.062v-16.827zm2.113 9.135h2.38v2.163h-2.38v-2.163zm29.078-8.895h3.024q1.117 0 1.16 1.347l.535 15.24h-2.916l-.479-13.752h-.37l-2.3 10.337q-.185 1.157-1.241 1.157h-1.989q-1.056 0-1.28-1.157l-2.3-10.337h-.353l-.436 13.752h-2.937l.54-15.24q.038-1.347 1.177-1.347h2.963q1.013 0 1.242 1.177l1.841 8.344q.125.576.207 1.167.082.586.186 1.187h.267q.104-.601.199-1.187.095-.591.198-1.192l1.82-8.32q.207-1.176 1.242-1.176zm14.272 4.397q1.281 0 2.174.4.888.396 1.354 1.343.466.952.466 2.61v7.837h-2.441l-.436-2.574-.207-.36v-4.929q0-.841-.34-1.222-.341-.385-1.295-.385-.789 0-1.966.06-1.182.06-2.424.155l-.29-2.354q.747-.17 1.717-.29.975-.12 1.95-.206.97-.085 1.738-.085zm-2.795 4.883h5.525l-.017 1.994-4.555.025q-.56 0-.798.31-.237.316-.237.841v.581q0 .601.29.922.288.325.93.325.54 0 1.17-.265.63-.26 1.25-.741.621-.481 1.1-1.132v1.537q-.185.361-.548.902-.362.54-.922 1.057-.561.52-1.303.881-.746.36-1.7.36-.93 0-1.677-.385-.746-.385-1.178-1.132-.435-.746-.435-1.848v-1.227q0-1.417.828-2.213.828-.792 2.277-.792zm17.645-4.858q1.923 0 2.751 1.638.828 1.633.828 4.688 0 2.379-.422 3.726-.423 1.342-1.285 1.883-.859.54-2.14.54-1.1 0-2.092-.36-.996-.36-1.76-1.202l.208-1.582q.681.24 1.25.42.57.18 1.294.18.665 0 1.057-.265.393-.265.57-1.047.176-.78.176-2.273 0-1.463-.168-2.244-.164-.781-.535-1.082-.375-.3-.974-.3-.665 0-1.221.3-.56.3-1.264.852l-.392-1.633q.414-.651 1.065-1.157t1.44-.791q.786-.29 1.614-.29zm-6.729.29h2.485l.289 2.164.289.36v7.719l-.104.285q.065.721.095 1.503.03.78.009 1.552v2.86h-3.063V339.72zm20.875-.29q1.924 0 2.752 1.638.828 1.633.828 4.688 0 2.379-.423 3.726-.422 1.342-1.285 1.883-.858.54-2.14.54-1.099 0-2.09-.36-.997-.36-1.76-1.202l.206-1.582q.682.24 1.251.42.57.18 1.294.18.664 0 1.057-.265.392-.265.57-1.047.176-.78.176-2.273 0-1.463-.168-2.244-.164-.781-.535-1.082-.375-.3-.975-.3-.664 0-1.22.3-.561.3-1.264.852l-.393-1.633q.414-.651 1.066-1.157.651-.506 1.44-.791.785-.29 1.613-.29zm-6.728.29h2.484l.29 2.164.288.36v7.719l-.103.285q.064.721.095 1.503.03.78.008 1.552v2.86h-3.062V339.72zm18.99-.315q2.588 0 3.718 1.022 1.126 1.022 1.126 3.045.021 1.633-.703 2.439-.725.806-2.506.806h-5.71v-1.998h4.864q.703 0 .898-.346.198-.35.198-.976-.022-.842-.423-1.167-.405-.32-1.358-.32-.85 0-1.324.26-.475.265-.665 1.011-.185.747-.185 2.164 0 1.492.229 2.294.228.806.776 1.122.548.31 1.522.31.703 0 1.747-.06 1.048-.06 2.105-.205l.289 2.188q-.6.336-1.367.531-.768.19-1.575.276-.806.085-1.552.085-1.945 0-3.136-.661-1.19-.661-1.716-2.034-.53-1.372-.53-3.51 0-2.33.538-3.702.54-1.372 1.7-1.973 1.155-.6 3.04-.6zm8.558.316h2.402l.371 2.354.29.315v9.205h-3.063v-11.874zm6.853-.316h.54l-.294 3.296h-.845q-.725 0-1.514.24-.785.24-1.988.721l-.207-1.993q1.078-1.107 2.173-1.683 1.1-.58 2.135-.58z" />
    </svg></svg>
